<svg width="32" height="32" viewBox="0 0 32 32" fill="none" xmlns="http://www.w3.org/2000/svg">
<path d="M16 0C24.8366 0 32 7.16344 32 16C32 24.8366 24.8366 32 16 32C7.16344 32 0 24.8366 0 16C0 7.16344 7.16344 0 16 0Z" fill="#9CAF88"/>
<path d="M16 0C24.8366 0 32 7.16344 32 16C32 24.8366 24.8366 32 16 32C7.16344 32 0 24.8366 0 16C0 7.16344 7.16344 0 16 0Z" stroke="#E5E7EB"/>
<path d="M22.125 26H9.875V6H22.125V26Z" stroke="#E5E7EB"/>
<g clip-path="url(#clip0_269_3100)">
<path d="M21.8681 11.6323C22.2099 11.9741 22.2099 12.5292 21.8681 12.871L14.8681 19.871C14.5263 20.2128 13.9712 20.2128 13.6294 19.871L10.1294 16.371C9.7876 16.0292 9.7876 15.4741 10.1294 15.1323C10.4712 14.7905 11.0263 14.7905 11.3681 15.1323L14.2501 18.0116L20.6321 11.6323C20.9739 11.2905 21.529 11.2905 21.8708 11.6323H21.8681Z" fill="white"/>
</g>
<defs>
<clipPath id="clip0_269_3100">
<path d="M9.875 8.75H22.125V22.75H9.875V8.75Z" fill="white"/>
</clipPath>
</defs>
</svg>
